<?xml version="1.0" encoding="UTF-8"?>
<svg version="1.1" xmlns="http://www.w3.org/2000/svg" width="449" height="556">
<path d="M0 0 C2 0.75 2 0.75 5 2.75 C5 3.41 5 4.07 5 4.75 C5.55681237 4.98177287 6.11362474 5.21354574 6.68731022 5.45234203 C9.61569781 7.0954701 11.62944098 9.13392941 14.0030365 11.51252747 C14.49295265 12.00073477 14.98286881 12.48894207 15.4876309 12.99194354 C17.1266703 14.62769104 18.75846297 16.27047997 20.39038086 17.91333008 C21.56467962 19.08819305 22.73941909 20.26261567 23.91456604 21.43663025 C27.10500765 24.62649742 30.28923857 27.82250024 33.47240901 31.01962113 C36.80570863 34.36542689 40.14467612 37.70556651 43.48304749 41.04631042 C49.80980565 47.379289 56.13144996 53.71734695 62.45127827 60.05724019 C69.62562928 67.25388121 76.8055993 74.44490478 83.98607814 81.63543093 C96.26410163 93.93082965 108.53791658 106.2304163 120.80697632 118.53475952 C121.58594885 119.31595084 121.58594885 119.31595084 122.38065821 120.1129238 C123.76109828 121.4973274 125.1414766 122.88179257 126.52184963 124.26626301 C128.25599916 126.00432192 130.00250812 127.73009671 131.75812626 129.4464674 C134 131.75 134 131.75 135 133.75 C131.27774332 140.15046575 126.9898206 144.89889173 121.3671875 149.70703125 C119.13617499 151.63247604 117.05674786 153.64112258 115 155.75 C113.02 155.09 111.04 154.43 109 153.75 C109 153.09 109 152.43 109 151.75 C108.1790686 151.41802612 108.1790686 151.41802612 107.34155273 151.0793457 C104.26768395 149.33424972 101.98694375 146.98405048 99.53515625 144.48046875 C98.76237587 143.70344353 98.76237587 143.70344353 97.97398376 142.91072083 C96.3320505 141.25763285 94.69719981 139.59773823 93.0625 137.9375 C91.96726191 136.83222129 90.87156329 135.72739872 89.77539062 134.62304688 C87.7498107 132.58118615 85.72701058 130.53665531 83.70727539 128.48901367 C81.88039039 126.64071149 80.02705738 124.8182322 78.15014648 123.02075195 C76 120.75 76 120.75 76 118.75 C75.40403739 118.47990962 74.80807478 118.20981924 74.1940527 117.9315443 C72.01089229 116.75586573 70.62269484 115.60572766 68.89515686 113.84529114 C68.0142614 112.95551323 68.0142614 112.95551323 67.11557007 112.04776001 C66.4832547 111.39882782 65.85093933 110.74989563 65.19946289 110.08129883 C64.52416031 109.39665054 63.84885773 108.71200226 63.15309143 108.00660706 C61.68869448 106.52122247 60.22647772 105.03368605 58.76619148 103.54426003 C56.45606153 101.19012038 54.13809719 98.84397713 51.81748962 96.50016785 C45.22082426 89.83626214 38.63243621 83.16434939 32.06469727 76.47192383 C28.04639612 72.37847779 24.01373369 68.29966814 19.9713726 64.22998619 C18.43200531 62.67447498 16.89821865 61.11342094 15.37010384 59.54685402 C13.2368846 57.36088799 11.08594479 55.19397084 8.92993164 53.03051758 C7.98449493 52.04801025 7.98449493 52.04801025 7.0199585 51.0456543 C5.40341848 49.44379167 3.9016332 47.99964202 2 46.75 C-1.85727189 46.78557029 -3.86975147 48.07952829 -6.6875 50.625 C-7.55955078 51.39457031 -7.55955078 51.39457031 -8.44921875 52.1796875 C-10.21821469 53.87151457 -10.21821469 53.87151457 -12 56.75 C-12.66 56.75 -13.32 56.75 -14 56.75 C-14.3403125 57.57757813 -14.3403125 57.57757813 -14.6875 58.421875 C-16.38725926 61.43692417 -18.54804816 63.56230369 -21 66 C-22.3303125 67.33804688 -22.3303125 67.33804688 -23.6875 68.703125 C-26 70.75 -26 70.75 -28 70.75 C-28.33 71.74 -28.66 72.73 -29 73.75 C-31.4375 76.4375 -31.4375 76.4375 -34 78.75 C-34.66 78.75 -35.32 78.75 -36 78.75 C-36.3403125 79.61625 -36.3403125 79.61625 -36.6875 80.5 C-38.33783478 83.32914534 -40.43258577 84.73274596 -43 86.75 C-43.721875 87.6575 -44.44375 88.565 -45.1875 89.5 C-45.785625 90.2425 -46.38375 90.985 -47 91.75 C-47.66 91.75 -48.32 91.75 -49 91.75 C-49.25136719 92.33910156 -49.50273437 92.92820312 -49.76171875 93.53515625 C-51.15455401 96.02644202 -52.6208572 97.37300414 -54.8125 99.1875 C-58.0323441 101.9133247 -61.05440203 104.72479128 -64 107.75 C-66.51090797 110.26090797 -69.02076025 112.7702539 -71.5625 115.25 C-73.89129944 117.63851225 -75.96378497 120.110462 -78 122.75 C-76.00934594 128.49953228 -72.43796582 131.79116831 -68.1875 136 C-67.47529297 136.7321875 -66.76308594 137.464375 -66.02929688 138.21875 C-65.33255859 138.91484375 -64.63582031 139.6109375 -63.91796875 140.328125 C-63.28656982 140.96137695 -62.6551709 141.59462891 -62.00463867 142.24707031 C-59.61901182 144.03563674 -57.96744561 144.5613237 -55 144.75 C-52.37500791 142.62640616 -52.37500791 142.62640616 -50 139.75 C-47.62029995 137.31080744 -45.33516497 135.00578379 -42.625 132.9375 C-40.46302895 131.13585746 -38.85844722 129.49344219 -37.05859375 127.3671875 C-32.5414936 122.16036817 -27.79932695 117.18500705 -22.97485352 112.26489258 C-21.94100163 111.2041149 -20.91438685 110.13624023 -19.89477539 109.06176758 C-18.40340869 107.49157048 -16.89051745 105.94534664 -15.37109375 104.40234375 C-14.48349365 103.48445068 -13.59589355 102.56655762 -12.68139648 101.62084961 C-10 99.75 -10 99.75 -7.29748344 99.70558071 C-2.56282316 101.20520023 0.01453273 104.08890951 3.44113159 107.58985901 C4.16904691 108.3135022 4.89696223 109.03714539 5.64693558 109.78271717 C8.0864007 112.21393746 10.50755011 114.6626151 12.92919922 117.11157227 C14.6728305 118.85661367 16.41756305 120.60055529 18.16331482 122.34347534 C21.92105348 126.10007489 25.67099142 129.86420726 29.41405869 133.6354084 C34.82588274 139.08788255 40.25147504 144.52648352 45.68051745 149.96180712 C54.48855494 158.78078542 63.28537075 167.61086966 72.07519531 176.44799805 C80.61327697 185.03198081 89.15659885 193.61069191 97.70703125 202.18237305 C98.23415313 202.71080854 98.761275 203.23924403 99.30437027 203.78369273 C101.94884095 206.43468863 104.59341509 209.0855813 107.23804069 211.73642266 C129.17475903 233.72496737 151.09310294 255.73174267 173 277.75 C170.57671267 282.08534035 168.47117463 285.65317025 164.890625 289.15234375 C163.75947266 290.26899414 163.75947266 290.26899414 162.60546875 291.40820312 C161.82816406 292.16037109 161.05085938 292.91253906 160.25 293.6875 C159.45722656 294.46673828 158.66445313 295.24597656 157.84765625 296.04882812 C155.90511713 297.95626112 153.95590613 299.85629245 152 301.75 C146.01232383 298.92999768 141.57601775 294.44335154 137 289.75 C136.175 288.925 135.35 288.1 134.5 287.25 C133.675 286.425 132.85 285.6 132 284.75 C130.6696875 283.4815625 130.6696875 283.4815625 129.3125 282.1875 C127 279.75 127 279.75 125.9375 277.5625 C124.72171843 275.21198896 123.33020244 274.87751731 121 273.75 C120.67 272.76 120.34 271.77 120 270.75 C119.360625 270.440625 118.72125 270.13125 118.0625 269.8125 C115.49948282 268.49215782 115.2592663 267.2685326 114 264.75 C112.67592331 264.06513275 111.34090759 263.40129797 110 262.75 C105.41262136 258.59951456 105.41262136 258.59951456 103.9375 255.5625 C102.70242811 253.17469435 101.39624623 252.91389103 99 251.75 C94.41262136 247.59951456 94.41262136 247.59951456 92.9375 244.5625 C92.13297839 242.57107843 92.13297839 242.57107843 90 241.75 C87.47154472 240.48577236 87.23577236 239.22154472 86 236.75 C84.67479497 236.06731862 83.34187818 235.3992959 82 234.75 C81.67 233.76 81.34 232.77 81 231.75 C80.34 231.42 79.68 231.09 79 230.75 C77 229.75 77 229.75 76 226.75 C74.6779465 226.06123534 73.34235088 225.39831807 72 224.75 C70.51247326 223.44522458 69.07316725 222.08448058 67.671875 220.6875 C66.87265625 219.89085937 66.0734375 219.09421875 65.25 218.2734375 C64.425 217.44070313 63.6 216.60796875 62.75 215.75 C61.90953125 214.91726563 61.0690625 214.08453125 60.203125 213.2265625 C59.4090625 212.42992187 58.615 211.63328125 57.796875 210.8125 C57.06823242 210.08160156 56.33958984 209.35070312 55.58886719 208.59765625 C54 206.75 54 206.75 54 204.75 C53.41734375 204.4921875 52.8346875 204.234375 52.234375 203.96875 C49.8197097 202.65165983 48.18259823 201.19911616 46.25 199.25 C45.63640625 198.6415625 45.0228125 198.033125 44.390625 197.40625 C43 195.75 43 195.75 43 193.75 C42.42509827 193.49976074 41.85019653 193.24952148 41.25787354 192.99169922 C38.684856 191.57668912 36.95245089 189.95652697 34.87402344 187.8828125 C34.07349548 187.08858887 33.27296753 186.29436523 32.44818115 185.47607422 C31.59387512 184.61771973 30.73956909 183.75936523 29.859375 182.875 C28.97719299 181.99473145 28.09501099 181.11446289 27.18609619 180.20751953 C24.84788561 177.87101752 22.51461799 175.52970581 20.18286133 173.18676758 C18.27309251 171.27179237 16.35595907 169.36427599 14.43880844 167.45669556 C12.1574764 165.18430977 9.88375806 162.90433769 7.609375 160.625 C6.74697205 159.76664551 5.88456909 158.90829102 4.99603271 158.02392578 C3.81415375 156.83259033 3.81415375 156.83259033 2.60839844 155.6171875 C1.90986755 154.91706543 1.21133667 154.21694336 0.49163818 153.49560547 C-1 151.75 -1 151.75 -1 149.75 C-4.08809695 147.98537317 -5.23312136 147.75 -9 147.75 C-17.6333135 153.12230404 -24.87198256 162.53149015 -32 169.75 C-31.01 170.925625 -31.01 170.925625 -30 172.125 C-28 174.75 -28 174.75 -28 176.75 C-27.42378906 176.98847656 -26.84757813 177.22695312 -26.25390625 177.47265625 C-23.52806795 179.01745542 -21.9743552 180.80799626 -19.9375 183.1875 C-12.97691366 191.1097463 -5.63776645 198.63753759 2.5390625 205.3125 C4 206.75 4 206.75 5 209.75 C5.66 210.08 6.32 210.41 7 210.75 C7.66 211.08 8.32 211.41 9 211.75 C9.33 212.74 9.66 213.73 10 214.75 C10.639375 215.059375 11.27875 215.36875 11.9375 215.6875 C14.50051718 217.00784218 14.7407337 218.2314674 16 220.75 C16.55171875 220.9975 17.1034375 221.245 17.671875 221.5 C21.09561683 223.33825065 23.53764457 225.99871124 26.25 228.75 C26.80429688 229.2965625 27.35859375 229.843125 27.9296875 230.40625 C32 234.4966133 32 234.4966133 32 236.75 C32.58117458 237.00613508 33.16234917 237.26227016 33.7611351 237.52616692 C36.21903802 238.86973298 37.84564682 240.34949153 39.82183838 242.33132935 C40.56778259 243.07452423 41.31372681 243.81771912 42.08227539 244.58343506 C42.89075928 245.3991095 43.69924316 246.21478394 44.53222656 247.05517578 C45.39112488 247.91378204 46.25002319 248.77238831 47.13494873 249.65701294 C49.48539336 252.00861144 51.83131459 254.36455732 54.17533588 256.72254801 C56.627448 259.18716991 59.08523207 261.64612225 61.54241943 264.10568237 C66.1928819 268.76235887 70.83822297 273.42410974 75.48174453 278.08770645 C80.76919919 283.39752248 86.06233984 288.7016548 91.35596514 294.00531793 C102.24364811 304.91390116 113.12417051 315.82959806 124 326.75 C123.67 327.74 123.34 328.73 123 329.75 C122.34 329.75 121.68 329.75 121 329.75 C120.6596875 330.8328125 120.6596875 330.8328125 120.3125 331.9375 C118.70736477 335.3770755 116.77897397 337.15226346 114 339.75 C111.92050627 341.88936399 109.84318666 344.0307572 107.76953125 346.17578125 C106 347.75 106 347.75 104 347.75 C103.75121094 348.3378125 103.50242187 348.925625 103.24609375 349.53125 C101.82596195 352.05988593 100.29869782 353.41773363 98.0625 355.25 C95.84958877 357.06996437 94.07108393 358.65317584 92.37109375 360.96875 C91.91863281 361.5565625 91.46617187 362.144375 91 362.75 C90.34 362.75 89.68 362.75 89 362.75 C88.75378906 363.32073242 88.50757813 363.89146484 88.25390625 364.47949219 C86.79101003 367.1284281 85.07354681 368.93548546 82.9375 371.078125 C82.14085937 371.87734375 81.34421875 372.6765625 80.5234375 373.5 C79.27433594 374.7375 79.27433594 374.7375 78 376 C77.16726563 376.84046875 76.33453125 377.6809375 75.4765625 378.546875 C74.67992187 379.3409375 73.88328125 380.135 73.0625 380.953125 C72.33160156 381.68176758 71.60070312 382.41041016 70.84765625 383.16113281 C69 384.75 69 384.75 67 384.75 C66.731875 385.389375 66.46375 386.02875 66.1875 386.6875 C65 388.75 65 388.75 62 389.75 C62 390.41 62 391.07 62 391.75 C61.34 391.75 60.68 391.75 60 391.75 C59.67 392.74 59.34 393.73 59 394.75 C58.34 394.75 57.68 394.75 57 394.75 C57 395.41 57 396.07 57 396.75 C56.34 396.75 55.68 396.75 55 396.75 C54.65254982 397.58493484 54.65254982 397.58493484 54.29808044 398.43673706 C52.65377966 401.36698695 50.60989449 403.38690123 48.23071289 405.76220703 C47.74756119 406.24725708 47.26440948 406.73230713 46.76661682 407.23205566 C45.17346973 408.82889761 43.57325344 410.418441 41.97265625 412.0078125 C40.8613245 413.11795162 39.75036272 414.22846124 38.63975525 415.33932495 C36.3134548 417.66406277 33.98383765 419.98540669 31.65161133 422.30419922 C28.66268689 425.27612435 25.68039717 428.25459948 22.70034122 431.23541451 C20.40753932 433.52794447 18.11214014 435.81785866 15.81585503 438.10689926 C14.71524771 439.20432544 13.61524409 440.30235742 12.51585579 441.40100479 C10.97929463 442.93539709 9.43948479 444.46645101 7.89868164 445.99658203 C7.02313126 446.86832062 6.14758087 447.7400592 5.24549866 448.63821411 C0.87336522 452.75 0.87336522 452.75 -2.25 452.75 C-6.18619734 451.31865551 -9.17022259 448.82442676 -12 445.75 C-12 445.09 -12 444.43 -12 443.75 C-12.639375 443.481875 -13.27875 443.21375 -13.9375 442.9375 C-16 441.75 -16 441.75 -17 438.75 C-17.639375 438.440625 -18.27875 438.13125 -18.9375 437.8125 C-21.50051718 436.49215782 -21.7407337 435.2685326 -23 432.75 C-24.32520503 432.06731862 -25.65812182 431.3992959 -27 430.75 C-27.33 429.76 -27.66 428.77 -28 427.75 C-29.31719929 427.05199696 -30.65337955 426.38940252 -32 425.75 C-33.921875 424.09375 -33.921875 424.09375 -35.75 422.25 C-36.36359375 421.6415625 -36.9771875 421.033125 -37.609375 420.40625 C-39 418.75 -39 418.75 -39 416.75 C-39.58265625 416.4921875 -40.1653125 416.234375 -40.765625 415.96875 C-43.1802903 414.65165983 -44.81740177 413.19911616 -46.75 411.25 C-47.36359375 410.6415625 -47.9771875 410.033125 -48.609375 409.40625 C-50 407.75 -50 407.75 -50 405.75 C-50.58265625 405.4921875 -51.1653125 405.234375 -51.765625 404.96875 C-54.1802903 403.65165983 -55.81740177 402.19911616 -57.75 400.25 C-58.36359375 399.6415625 -58.9771875 399.033125 -59.609375 398.40625 C-61 396.75 -61 396.75 -61 394.75 C-61.639375 394.481875 -62.27875 394.21375 -62.9375 393.9375 C-65 392.75 -65 392.75 -66 389.75 C-66.639375 389.440625 -67.27875 389.13125 -67.9375 388.8125 C-70.50051718 387.49215782 -70.7407337 386.2685326 -72 383.75 C-73.32520503 383.06731862 -74.65812182 382.3992959 -76 381.75 C-76.495 380.265 -76.495 380.265 -77 378.75 C-78.31719929 378.05199696 -79.65337955 377.38940252 -81 376.75 C-82.921875 375.09375 -82.921875 375.09375 -84.75 373.25 C-85.36359375 372.6415625 -85.9771875 372.033125 -86.609375 371.40625 C-88 369.75 -88 369.75 -88 367.75 C-88.58265625 367.4921875 -89.1653125 367.234375 -89.765625 366.96875 C-92.1802903 365.65165983 -93.81740177 364.19911616 -95.75 362.25 C-96.36359375 361.6415625 -96.9771875 361.033125 -97.609375 360.40625 C-99 358.75 -99 358.75 -99 356.75 C-99.58265625 356.4921875 -100.1653125 356.234375 -100.765625 355.96875 C-103.1802903 354.65165983 -104.81740177 353.19911616 -106.75 351.25 C-107.36359375 350.6415625 -107.9771875 350.033125 -108.609375 349.40625 C-110 347.75 -110 347.75 -110 345.75 C-110.58265625 345.4921875 -111.1653125 345.234375 -111.765625 344.96875 C-114.1802903 343.65165983 -115.81740177 342.19911616 -117.75 340.25 C-118.36359375 339.6415625 -118.9771875 339.033125 -119.609375 338.40625 C-121 336.75 -121 336.75 -121 334.75 C-121.52980469 334.53988281 -122.05960938 334.32976562 -122.60546875 334.11328125 C-125.98596484 332.1886595 -128.54722039 329.65029506 -131.3125 326.9375 C-132.15651367 326.15536133 -132.15651367 326.15536133 -133.01757812 325.35742188 C-136.955834 321.49629219 -136.955834 321.49629219 -137.15234375 318.17578125 C-135.66132936 315.03706959 -133.77190948 313.13760661 -131.25 310.75 C-130.38890625 309.925 -129.5278125 309.1 -128.640625 308.25 C-127.33351563 307.0125 -127.33351563 307.0125 -126 305.75 C-123.56342946 303.34864001 -121.20340366 300.99154184 -119 298.375 C-117 296.75 -117 296.75 -114.375 296.75 C-111.44418506 297.98402734 -111.27663042 298.94141308 -110 301.75 C-108.6780094 302.43888539 -107.3429572 303.10293881 -106 303.75 C-101.26116557 307.21851751 -97.41777108 311.41406788 -93.625 315.8671875 C-91.53509253 318.28866683 -89.29099935 320.51929011 -87 322.75 C-86.175 323.595625 -85.35 324.44125 -84.5 325.3125 C-82.10609032 327.74456247 -82.10609032 327.74456247 -79.625 329.5625 C-76.62061434 332.06615472 -74.22122807 334.84709905 -71.6796875 337.80859375 C-67.55246974 342.57888962 -62.85987464 346.66752785 -58.140625 350.83203125 C-55.66453198 353.05057445 -53.31817288 355.36743343 -51 357.75 C-50.175 358.575 -49.35 359.4 -48.5 360.25 C-46 362.75 -43.5 365.25 -41 367.75 C-40.154375 368.575 -39.30875 369.4 -38.4375 370.25 C-36 372.75 -36 372.75 -34.1875 375.125 C-31.68840675 378.1239119 -28.91464368 380.51959114 -25.95703125 383.0546875 C-22.73074534 385.84951401 -19.77855097 388.72982976 -17.1875 392.125 C-14.67178003 395.14386396 -11.88441469 397.56402312 -8.890625 400.09765625 C-7 401.75 -7 401.75 -4.75 404.25 C-4.1725 404.745 -3.595 405.24 -3 405.75 C0.50208242 405.36822162 2.38210986 403.82768211 4.9375 401.5 C5.98164063 400.55253906 5.98164063 400.55253906 7.046875 399.5859375 C9.41839465 397.35670903 11.72938526 395.08198271 14 392.75 C24 382.75 24 382.75 26.5625 380.25 C28.99456247 377.85609032 28.99456247 377.85609032 30.8125 375.375 C33.31243329 372.37508005 36.0858864 369.97860274 39.046875 367.4453125 C41.48745323 365.3268906 43.74607716 363.06483967 46 360.75 C46.76957031 359.98945313 47.53914062 359.22890625 48.33203125 358.4453125 C51.45762441 355.28768544 54.42257484 352.00346228 57.39355469 348.70092773 C60.05203975 345.77898521 62.77399089 342.97297076 65.640625 340.25390625 C66.24132812 339.67898438 66.84203125 339.1040625 67.4609375 338.51171875 C68.63602702 337.39564028 69.82330628 336.29223087 71.0234375 335.203125 C72.85778176 333.51850038 72.85778176 333.51850038 75 330.75 C75 324.86240299 70.36155814 321.1455971 66.5 317.1875 C65.675 316.383125 64.85 315.57875 64 314.75 C63.13375 313.863125 62.2675 312.97625 61.375 312.0625 C59.02914245 309.63724324 59.02914245 309.63724324 56 307.75 C52.99706929 307.68051435 52.99706929 307.68051435 50 308.75 C47.75149517 311.22661498 47.75149517 311.22661498 46 313.75 C45.34 313.75 44.68 313.75 44 313.75 C43.6596875 314.5853125 43.6596875 314.5853125 43.3125 315.4375 C41.25194706 319.06799803 38.59352047 321.97600435 34.8125 323.8125 C32.42469435 325.04757189 32.16389103 326.35375377 31 328.75 C29.3777546 330.45993434 27.70586575 332.12347684 26 333.75 C25.175 334.575 24.35 335.4 23.5 336.25 C21 338.75 18.5 341.25 16 343.75 C15.175 344.595625 14.35 345.44125 13.5 346.3125 C11.11148775 348.64129944 8.639538 350.71378497 6 352.75 C1.38792971 350.71210848 -1.57923344 348.43390244 -5 344.75 C-6.2375 343.5125 -6.2375 343.5125 -7.5 342.25 C-11.25 338.5 -11.25 338.5 -15 334.75 C-15.845625 333.925 -16.69125 333.1 -17.5625 332.25 C-20 329.75 -20 329.75 -21.8125 327.375 C-24.31243329 324.37508005 -27.0858864 321.97860274 -30.046875 319.4453125 C-32.48745323 317.3268906 -34.74607716 315.06483967 -37 312.75 C-38.2375 311.5125 -38.2375 311.5125 -39.5 310.25 C-40.7375 309.0125 -40.7375 309.0125 -42 307.75 C-42.845625 306.925 -43.69125 306.1 -44.5625 305.25 C-47 302.75 -47 302.75 -48.8125 300.375 C-51.31243329 297.37508005 -54.0858864 294.97860274 -57.046875 292.4453125 C-59.48745323 290.3268906 -61.74607716 288.06483967 -64 285.75 C-64.845625 284.925 -65.69125 284.1 -66.5625 283.25 C-69 280.75 -69 280.75 -70.8125 278.375 C-73.33456815 275.34851822 -76.15100302 272.98323716 -79.1953125 270.49609375 C-81.06823542 268.68398002 -81.8983556 267.08173164 -83 264.75 C-84.32407669 264.06513275 -85.65909241 263.40129797 -87 262.75 C-91.58737864 258.59951456 -91.58737864 258.59951456 -93.0625 255.5625 C-94.29757189 253.17469435 -95.60375377 252.91389103 -98 251.75 C-102.58737864 247.59951456 -102.58737864 247.59951456 -104.0625 244.5625 C-105.29757189 242.17469435 -106.60375377 241.91389103 -109 240.75 C-110.69038781 239.107397 -112.35190172 237.43503045 -114 235.75 C-115.1084853 234.66052589 -116.21926937 233.573387 -117.33203125 232.48828125 C-118.49224929 231.34641694 -119.65240471 230.20448901 -120.8125 229.0625 C-121.7087207 228.19141602 -121.7087207 228.19141602 -122.62304688 227.30273438 C-124.12014673 225.82274424 -125.56488731 224.29017218 -127 222.75 C-127 222.09 -127 221.43 -127 220.75 C-127.56700119 220.50667938 -128.13400238 220.26335876 -128.71818542 220.01266479 C-131.4314713 218.51124106 -133.30033874 216.72576592 -135.5090332 214.54736328 C-136.39287186 213.67951202 -137.27671051 212.81166077 -138.18733215 211.91751099 C-139.14229234 210.96892494 -140.09676397 210.01984685 -141.05078125 209.0703125 C-142.03387579 208.0961869 -143.01704646 207.12213813 -144.00028992 206.14816284 C-146.0557577 204.10915669 -148.106816 202.06582261 -150.15551758 200.02001953 C-152.78465786 197.39628208 -155.42960078 194.78910933 -158.07871723 192.18556404 C-160.11254743 190.18142222 -162.13508493 188.16617383 -164.15462303 186.14764023 C-165.1254104 185.18106602 -166.10033018 184.21862421 -167.0793705 183.26041031 C-168.44394286 181.92259542 -169.79140162 180.56739122 -171.13793945 179.21142578 C-171.90975052 178.44468536 -172.68156158 177.67794495 -173.47676086 176.88796997 C-175 174.75 -175 174.75 -174.84855652 172.61251831 C-171.37325566 164.98449196 -161.96752353 156.23736201 -155 151.75 C-149.79202202 151.82888159 -147.03655388 155.17973969 -143.62390137 158.68545532 C-142.99837356 159.31179882 -142.37284575 159.93814233 -141.72836256 160.58346593 C-139.63154834 162.68775026 -137.54939319 164.80596677 -135.46679688 166.92431641 C-133.96770686 168.43435529 -132.46768889 169.94347345 -130.96681213 171.45173645 C-127.73528575 174.70269716 -124.50998198 177.95966639 -121.28919983 181.22127151 C-116.19964151 186.37436676 -111.09387396 191.51119027 -105.98522949 196.64535522 C-93.30011338 209.39869161 -80.63368519 222.17054592 -67.97686768 234.95196533 C-58.13885641 244.88676585 -48.29463387 254.81520327 -38.42913294 264.72271669 C-33.34558733 269.82936528 -28.27626885 274.9496127 -23.21701813 280.08032632 C-20.07195484 283.26366447 -16.91454804 286.43452951 -13.75349236 289.60198021 C-12.28607371 291.07746412 -10.82385502 292.55813986 -9.36717415 294.04422569 C-7.3836639 296.06633126 -5.38267211 298.0693302 -3.37609863 300.06851196 C-2.79875835 300.66605777 -2.22141807 301.26360358 -1.62658262 301.87925684 C1.51017979 305.0299281 1.51017979 305.0299281 5.7378006 305.7364254 C8.91517219 304.35094186 10.83783837 302.37776069 13.265625 299.91015625 C13.74449158 299.42800156 14.22335815 298.94584686 14.71673584 298.44908142 C15.72307818 297.43234927 16.72465238 296.41087804 17.72167969 295.38500977 C19.25000167 293.81249828 20.79139676 292.25383474 22.3359375 290.69726562 C27.21978071 286.13430255 27.21978071 286.13430255 31 280.75 C30.443125 280.5025 29.88625 280.255 29.3125 280 C25.65014539 278.02034886 22.7606115 275.72043536 20.1875 272.4375 C18.28161093 270.09597915 16.47591057 268.37384741 14.1875 266.4375 C11.4778066 264.12058784 9.05620739 261.78032876 6.75 259.0625 C0.64042299 251.87640713 -6.12640713 245.10957701 -13.3125 239 C-16.6906002 236.12651228 -19.54161049 232.97356384 -22.41015625 229.59765625 C-24.48564209 227.18560514 -26.72093368 224.96909089 -29 222.75 C-29.825 221.904375 -30.65 221.05875 -31.5 220.1875 C-33.89390968 217.75543753 -33.89390968 217.75543753 -36.375 215.9375 C-39.32372204 213.48023163 -41.68756466 210.7763089 -44.15625 207.84765625 C-46.33533493 205.36848547 -48.6484797 203.06599884 -51 200.75 C-60.6965103 191.19379291 -60.6965103 191.19379291 -64.625 186.5625 C-67.54564523 183.14589615 -70.73090528 180.2470776 -74.15234375 177.33984375 C-76.56439486 175.26435791 -78.78090911 173.02906632 -81 170.75 C-81.825 169.925 -82.65 169.1 -83.5 168.25 C-84.325 167.425 -85.15 166.6 -86 165.75 C-86.845625 164.925 -87.69125 164.1 -88.5625 163.25 C-91 160.75 -91 160.75 -92.8125 158.375 C-95.33456815 155.34851822 -98.15100302 152.98323716 -101.1953125 150.49609375 C-103.06823542 148.68398002 -103.8983556 147.08173164 -105 144.75 C-106.32407669 144.06513275 -107.65909241 143.40129797 -109 142.75 C-113.58737864 138.59951456 -113.58737864 138.59951456 -115.0625 135.5625 C-116.29757189 133.17469435 -117.60375377 132.91389103 -120 131.75 C-122.8125 129.4375 -122.8125 129.4375 -125 126.75 C-124.8797984 121.99803 -122.27653881 119.3694048 -119.125 116.125 C-118.63974854 115.61227539 -118.15449707 115.09955078 -117.65454102 114.57128906 C-116.11426026 112.9529661 -114.55862559 111.35064617 -113 109.75 C-112.4838916 109.21342773 -111.9677832 108.67685547 -111.43603516 108.12402344 C-104.97555702 101.41593116 -104.97555702 101.41593116 -102 98.75 C-101.34 98.75 -100.68 98.75 -100 98.75 C-99.01 96.77 -99.01 96.77 -98 94.75 C-97.34 94.75 -96.68 94.75 -96 94.75 C-95.773125 94.1725 -95.54625 93.595 -95.3125 93 C-93.65273655 90.15469122 -91.57933333 88.81346666 -89 86.75 C-87.18215296 84.7740793 -85.44069415 82.74318148 -83.6953125 80.703125 C-81.5768906 78.26254677 -79.31483967 76.00392284 -77 73.75 C-76.175 72.925 -75.35 72.1 -74.5 71.25 C-73.675 70.425 -72.85 69.6 -72 68.75 C-70.7625 67.4815625 -70.7625 67.4815625 -69.5 66.1875 C-67 63.75 -67 63.75 -64.625 61.9375 C-61.62508005 59.43756671 -59.22860274 56.6641136 -56.6953125 53.703125 C-54.5768906 51.26254677 -52.31483967 49.00392284 -50 46.75 C-48.7625 45.4815625 -48.7625 45.4815625 -47.5 44.1875 C-45 41.75 -45 41.75 -42.625 39.9375 C-39.6260881 37.43840675 -37.23040886 34.66464368 -34.6953125 31.70703125 C-31.88004221 28.4571455 -28.9718683 25.497591 -25.5625 22.875 C-22.82073926 20.60134475 -20.73252921 18.13164456 -18.46484375 15.40234375 C-17 13.75 -17 13.75 -14.5625 11.8125 C-11.50926687 9.35501968 -9.15275451 6.55760156 -6.6484375 3.5546875 C-3.05293832 -0.38161729 -3.05293832 -0.38161729 0 0 Z " fill="#EEEEEE" transform="translate(214,41.25)"/>
<path d="M0 0 C0.99 1.485 0.99 1.485 2 3 C1.50721746 3.42191211 1.01443493 3.84382421 0.50671959 4.27852154 C-4.2796355 8.41556406 -8.84269259 12.70341695 -13.30224609 17.1887207 C-13.98295166 17.86928024 -14.66365723 18.54983978 -15.36499023 19.25102234 C-17.58685485 21.47357671 -19.80516794 23.69963926 -22.0234375 25.92578125 C-23.57641018 27.48062185 -25.12960591 29.03523971 -26.68301392 30.58964539 C-30.75159129 34.66202187 -34.81715633 38.73739254 -38.88208008 42.81341553 C-43.0302398 46.97183291 -47.18125549 51.12739726 -51.33203125 55.28320312 C-59.1182655 63.07965676 -66.9017227 70.87887558 -74.6830349 78.68024158 C-75.78798315 79.78753346 -76.89387932 80.89387932 -78 82 C-78.99 82 -79.98 82 -81 82 C-80.34 80.68 -79.68 79.36 -79 78 C-78.34 78 -77.68 78 -77 78 C-76.773125 77.4225 -76.54625 76.845 -76.3125 76.25 C-74.65273655 73.40469122 -72.57933333 72.06346666 -70 70 C-68.18215296 68.0240793 -66.44069415 65.99318148 -64.6953125 63.953125 C-62.5768906 61.51254677 -60.31483967 59.25392284 -58 57 C-57.175 56.175 -56.35 55.35 -55.5 54.5 C-54.675 53.675 -53.85 52.85 -53 52 C-51.7625 50.7315625 -51.7625 50.7315625 -50.5 49.4375 C-48 47 -48 47 -45.625 45.1875 C-42.62508005 42.68756671 -40.22860274 39.9141136 -37.6953125 36.953125 C-35.5768906 34.51254677 -33.31483967 32.25392284 -31 30 C-30.175 29.154375 -29.35 28.30875 -28.5 27.4375 C-26 25 -26 25 -23.625 23.1875 C-20.6260881 20.68840675 -18.23040886 17.91464368 -15.6953125 14.95703125 C-12.12395684 10.83433728 -8.25861334 7.38505163 -4 4 C-2.64852862 2.68505488 -1.30887458 1.35735142 0 0 Z " fill="#A5A5A5" transform="translate(195,58)"/>
<path d="M0 0 C0.66 0 1.32 0 2 0 C2.7421875 1.67578125 2.7421875 1.67578125 3 4 C1.4453125 6.48046875 1.4453125 6.48046875 -0.875 9.1875 C-1.70128906 10.15171875 -2.52757812 11.1159375 -3.37890625 12.109375 C-7.69882362 16.87351636 -12.25585825 21.35812441 -16.88671875 25.81640625 C-18.58092004 27.56697653 -20.14525511 29.33377419 -21.7109375 31.1953125 C-25.47540176 35.62701681 -29.52931359 39.75087133 -33.625 43.875 C-34.37523437 44.64585937 -35.12546875 45.41671875 -35.8984375 46.2109375 C-36.62546875 46.943125 -37.3525 47.6753125 -38.1015625 48.4296875 C-38.75463379 49.09210449 -39.40770508 49.75452148 -40.08056641 50.43701172 C-42.09525037 52.07756205 -43.46004909 52.59962409 -46 53 C-43.25416414 48.30919708 -40.1014166 45.15547602 -35.953125 41.66015625 C-33.49437018 39.57021465 -31.25035143 37.31117174 -29 35 C-28.23042969 34.23945313 -27.46085937 33.47890625 -26.66796875 32.6953125 C-23.5420157 29.53732186 -20.57812572 26.2514794 -17.60424805 22.95092773 C-14.95157204 20.03876521 -12.2389488 17.22996447 -9.39453125 14.50390625 C-8.79833984 13.92898438 -8.20214844 13.3540625 -7.58789062 12.76171875 C-6.42396074 11.64772645 -5.2497312 10.54437543 -4.06445312 9.453125 C-0.81458861 6.34583219 -0.81458861 6.34583219 0.36328125 2.12109375 C0.24339844 1.42113281 0.12351562 0.72117187 0 0 Z " fill="#878787" transform="translate(289,367)"/>
<path d="M0 0 C0.66 0.99 1.32 1.98 2 3 C1.5153125 3.4125 1.030625 3.825 0.53125 4.25 C-3.91405668 8.07980267 -8.09686849 12.04815302 -12.140625 16.30078125 C-14.00729688 18.00666837 -15.74727533 18.89770523 -18 20 C-18.33 20.66 -18.66 21.32 -19 22 C-19.66 21.67 -20.32 21.34 -21 21 C-15.68294956 14.82486649 -10.39525174 9.08340523 -4 4 C-2.64852862 2.68505488 -1.30887458 1.35735142 0 0 Z " fill="#878787" transform="translate(195,58)"/>
<path d="M0 0 C0.66 0 1.32 0 2 0 C2.75 1.6640625 2.75 1.6640625 3 4 C-1.17199836 10.63909355 -6.86964252 16.1739739 -13 21 C-12.04178888 15.70536935 -8.04364695 12.96305258 -4.21679688 9.50976562 C-0.86945641 6.39335696 -0.86945641 6.39335696 0.37109375 2.12109375 C0.18740234 1.07115234 0.18740234 1.07115234 0 0 Z " fill="#929292" transform="translate(289,367)"/>
<path d="M0 0 C0.99 0.33 1.98 0.66 3 1 C1.25311063 2.77399627 -0.49733451 4.54422553 -2.25 6.3125 C-2.74113281 6.81201172 -3.23226562 7.31152344 -3.73828125 7.82617188 C-6.34377844 10.44903904 -8.88973061 12.9838298 -12 15 C-12.66 15 -13.32 15 -14 15 C-14 15.66 -14 16.32 -14 17 C-14.66 16.67 -15.32 16.34 -16 16 C-10.66666667 10.66666667 -5.33333333 5.33333333 0 0 Z " fill="#777777" transform="translate(212,41)"/>
</svg>
